<?xml version="1.0" encoding="UTF-8"?>
<svg version="1.1" xmlns="http://www.w3.org/2000/svg" width="1414" height="2000">
<path d="M0 0 C466.62 0 933.24 0 1414 0 C1414 660 1414 1320 1414 2000 C947.38 2000 480.76 2000 0 2000 C0 1340 0 680 0 0 Z " fill="#FEFEFE" transform="translate(0,0)"/>
<path d="M0 0 C131.44516617 -0.24175249 131.44516617 -0.24175249 167.79429896 -0.30098001 C169.91413113 -0.30443517 172.0339633 -0.3078908 174.15379545 -0.31135491 C223.66385554 -0.39225351 273.17392176 -0.4567127 322.684021 -0.50811768 C324.29144194 -0.50979108 325.89886289 -0.5114645 327.50628384 -0.51313793 C361.24639627 -0.54821008 394.98651073 -0.58081068 428.72662828 -0.61055614 C445.6753808 -0.62550088 462.62413286 -0.64092056 479.57288454 -0.6567893 C482.1295414 -0.65918028 484.68619827 -0.6615577 487.24285514 -0.66393456 C526.61225404 -0.7006548 565.98160842 -0.7475613 605.35095215 -0.82397461 C606.19744219 -0.82561739 607.04393222 -0.82726018 607.91607347 -0.82895275 C621.56401849 -0.85550124 635.21196178 -0.88290454 648.85990487 -0.91042129 C688.16972216 -0.98966403 727.47950521 -1.06258695 766.78939438 -1.09367752 C767.59775698 -1.09431994 768.40611959 -1.09496236 769.23897803 -1.09562425 C786.98442921 -1.10961336 804.72988081 -1.12035164 822.4753358 -1.12801179 C829.61549251 -1.13115126 836.75564896 -1.1347587 843.89580536 -1.13852692 C844.67726471 -1.13892804 845.45872406 -1.13932917 846.263864 -1.13974245 C871.44333604 -1.15289998 896.62255377 -1.20415315 921.80192317 -1.2753865 C947.16585984 -1.34696763 972.52954974 -1.38118996 997.89358999 -1.36348785 C1001.39875204 -1.36105089 1004.90391423 -1.3590423 1008.40907669 -1.35729218 C1009.4397427 -1.35675433 1009.4397427 -1.35675433 1010.49123025 -1.35620561 C1020.7061256 -1.35191702 1030.92055079 -1.38123185 1041.13531876 -1.4304657 C1052.49851002 -1.48503767 1063.86083531 -1.5005179 1075.2241102 -1.46198176 C1080.94753347 -1.44382276 1086.66921183 -1.44480153 1092.39244965 -1.49859819 C1097.60028352 -1.54717907 1102.80501239 -1.54043574 1108.01279876 -1.48967971 C1109.88420275 -1.4811131 1111.75583516 -1.4926476 1113.62694669 -1.52682294 C1128.96577531 -1.78920519 1128.96577531 -1.78920519 1135.35542192 4.13038452 C1137.75321112 6.63838475 1139.8732656 9.25428717 1142 12 C1143.54040512 13.81357228 1145.08185378 15.62625951 1146.625 17.4375 C1148.08833398 19.28772264 1149.5465733 21.14198467 1151 23 C1151.78890625 23.96035156 1152.5778125 24.92070312 1153.390625 25.91015625 C1171.06714762 47.89463643 1183.14024876 74.64997948 1190.1875 101.8125 C1190.43790039 102.76036377 1190.68830078 103.70822754 1190.94628906 104.68481445 C1194.73663204 119.90132329 1195.38009258 135.14500315 1195.3125 150.75 C1195.31067719 151.62707611 1195.30885437 152.50415222 1195.30697632 153.4078064 C1195.26134266 166.46542413 1194.86683162 179.20973559 1192 192 C1191.82839355 192.78455566 1191.65678711 193.56911133 1191.47998047 194.37744141 C1183.65088057 229.10114365 1167.29754468 260.24292554 1144 287 C1143.32445068 287.78721436 1143.32445068 287.78721436 1142.63525391 288.59033203 C1137.7879126 294.23507147 1132.69598377 299.2287528 1127 304 C1125.61748047 305.23169922 1125.61748047 305.23169922 1124.20703125 306.48828125 C1086.74423273 339.64542226 1037.42175882 355.20879612 988.04902649 355.12025452 C986.23287017 355.12069109 984.41671391 355.12156759 982.60055798 355.12284368 C977.63151339 355.12507165 972.66249049 355.12109067 967.69344866 355.11606562 C962.32685704 355.11173686 956.96026658 355.11320927 951.59367371 355.1139679 C942.30283126 355.11449159 933.01199585 355.11136088 923.72115517 355.10573006 C910.28824938 355.09759419 896.85534699 355.0949977 883.422439 355.09374207 C861.62708306 355.09155483 839.83173086 355.08490363 818.03637695 355.07543945 C796.86743183 355.06625685 775.69848773 355.05918016 754.52954102 355.05493164 C753.22412691 355.05466892 751.91871281 355.05440619 750.5737407 355.05413551 C744.02469447 355.05283045 737.47564824 355.05156674 730.92660201 355.05032361 C676.61773208 355.03996121 622.30886622 355.02235181 568 355 C568.01360313 356.8817115 568.01360313 356.8817115 568.02748108 358.80143738 C568.15129159 375.92805414 561.65268667 394.36351456 555 410 C554.66097656 410.8137207 554.32195313 411.62744141 553.97265625 412.46582031 C543.84205383 436.61413359 529.99432629 458.63972144 511.58789062 477.37695312 C509.87820758 479.12448893 508.19755427 480.89763348 506.515625 482.671875 C497.72820236 491.8250007 488.31994714 499.6345936 478 507 C477.38189453 507.44682129 476.76378906 507.89364258 476.12695312 508.35400391 C433.56479944 538.8892298 378.43917495 552.32801921 326.625 544.375 C301.39692182 540.14884005 277.55112397 533.13211153 255 521 C254.33371582 520.64679687 253.66743164 520.29359375 252.98095703 519.9296875 C225.25150735 505.16543179 200.29007362 483.58692026 182 458 C181.59410645 457.44376953 181.18821289 456.88753906 180.77001953 456.31445312 C160.52829456 428.36502506 142.8619691 390.15747932 143 355 C142.09501676 355.00276538 142.09501676 355.00276538 141.17175102 355.00558662 C126.38469702 355.05005859 111.59764961 355.08299731 96.81054497 355.10362434 C89.65915374 355.11386854 82.50780758 355.12779488 75.35644531 355.15087891 C69.11194134 355.17102578 62.86747004 355.183766 56.62293446 355.18817699 C53.32683282 355.19074899 50.03084456 355.1977512 46.73476791 355.21146011 C43.02478543 355.22625837 39.3149883 355.22796638 35.60498047 355.22705078 C34.55263718 355.23424133 33.50029388 355.24143188 32.4160614 355.24884033 C21.45213339 355.22008725 11.07279664 354.00661788 0 353 C0 236.51 0 120.02 0 0 Z " fill="#9F74C5" transform="translate(0,0)"/>
<path d="M0 0 C0.66407336 31.47367159 -4.49529135 57.0230347 -26 81 C-26.56203125 81.63292969 -27.1240625 82.26585937 -27.703125 82.91796875 C-40.41450927 96.40067488 -57.29193104 105.17465226 -75 110 C-76.20585015 110.37235511 -76.20585015 110.37235511 -77.43606091 110.75223255 C-88.45368424 113.78300477 -99.43142634 113.39964154 -110.77270508 113.34057617 C-113.06030771 113.33972876 -115.34791115 113.34020727 -117.63551331 113.34190369 C-123.81230489 113.34276059 -129.9889199 113.3251842 -136.16567063 113.30418181 C-142.63319889 113.28536411 -149.10073167 113.28366056 -155.56828308 113.28010559 C-166.41282552 113.27185577 -177.25729595 113.25314695 -188.10180664 113.22631836 C-199.26554038 113.19872896 -210.42925658 113.17751936 -221.59301758 113.16479492 C-222.28258515 113.16400675 -222.97215272 113.16321858 -223.68261627 113.16240653 C-227.14240245 113.15849106 -230.60218874 113.15470002 -234.06197512 113.15097082 C-262.70802683 113.11993343 -291.35401089 113.0669242 -320 113 C-319.99886084 113.67239129 -319.99772168 114.34478259 -319.996548 115.03754938 C-319.92932057 154.94546457 -319.87789332 194.85337242 -319.84680401 234.76133283 C-319.84305218 239.55996417 -319.83916918 244.35859539 -319.83520508 249.15722656 C-319.83441815 250.11249232 -319.83363122 251.06775807 -319.83282044 252.05197127 C-319.81978923 267.49159396 -319.79614805 282.93118292 -319.76854161 298.37078564 C-319.74042369 314.22946448 -319.72381027 330.08812574 -319.71773452 345.94682848 C-319.71363129 355.72164061 -319.70070172 365.49635737 -319.6762506 375.27114011 C-319.66031445 381.98659658 -319.65561735 388.70200421 -319.65949587 395.41747819 C-319.66140524 399.28398215 -319.65861175 403.15032023 -319.64238358 407.0167942 C-319.56381422 426.72310923 -320.10000081 445.2555339 -326.625 464.0625 C-327.14332397 465.58000854 -327.14332397 465.58000854 -327.67211914 467.12817383 C-341.12681274 505.19503829 -369.8034941 533.4554209 -405.57617188 550.86230469 C-420.81992788 558.01741176 -438.18978518 562.16554095 -455.0099268 562.12863445 C-456.01922582 562.13038749 -457.02852485 562.13214053 -458.0684087 562.13394669 C-461.46579051 562.13861539 -464.86312969 562.13613892 -468.26051331 562.13371277 C-470.71480801 562.13558031 -473.16910241 562.13788078 -475.62339634 562.14057809 C-480.96760838 562.14542788 -486.31180795 562.14714938 -491.65602112 562.14612198 C-499.6033697 562.14459787 -507.55070824 562.14875703 -515.49805487 562.1539966 C-530.51878245 562.16367271 -545.53950661 562.16648096 -560.56023694 562.16705366 C-572.16133813 562.16751309 -583.76243798 562.16957084 -595.36353874 562.17275429 C-598.70217846 562.17365183 -602.04081817 562.17454164 -605.37945789 562.17542917 C-606.62444234 562.17576074 -606.62444234 562.17576074 -607.89457799 562.17609901 C-631.24487897 562.1822543 -654.59517948 562.18619947 -677.9454813 562.18575573 C-678.82604208 562.18574015 -679.70660286 562.18572457 -680.6138473 562.18570852 C-685.0769422 562.18562541 -689.54003709 562.18552637 -694.00313199 562.18542381 C-694.88952443 562.18540387 -695.77591687 562.18538392 -696.68916968 562.18536337 C-698.48167287 562.18532294 -700.27417607 562.18528114 -702.06667926 562.18523798 C-729.94785975 562.18462539 -757.82902807 562.19212845 -785.71020508 562.20581055 C-817.03254815 562.22117498 -848.35488322 562.22977652 -879.6772303 562.22884732 C-883.0180705 562.22877269 -886.3589107 562.22872399 -889.6997509 562.22869301 C-890.52235309 562.22868135 -891.34495527 562.2286697 -892.19248479 562.22865769 C-905.42483698 562.22862693 -918.65717859 562.2350103 -931.88952763 562.24362527 C-945.19260878 562.25210704 -958.49567449 562.25308762 -971.79875685 562.24651595 C-979.6989605 562.24282358 -987.59911721 562.24464328 -995.49931588 562.25445829 C-1001.40309931 562.26117234 -1007.30684613 562.25739626 -1013.21062922 562.24958507 C-1015.59559167 562.24804734 -1017.98055921 562.2498765 -1020.36551566 562.25544515 C-1047.05909372 562.31363543 -1047.05909372 562.31363543 -1060 558 C-1060 377.16 -1060 196.32 -1060 10 C-1052.74 10.33 -1045.48 10.66 -1038 11 C-1033.46100345 11.09920295 -1028.93350942 11.18050041 -1024.39501953 11.20532227 C-1023.21162491 11.21522186 -1022.02823029 11.22512146 -1020.80897522 11.23532104 C-1017.00027277 11.26623999 -1013.19155797 11.2914095 -1009.3828125 11.31640625 C-1006.7014023 11.33703639 -1004.01999661 11.35799376 -1001.33859253 11.37937927 C-995.06717896 11.42869577 -988.79574309 11.47385296 -982.5242871 11.51740164 C-975.36790182 11.56730631 -968.21155563 11.62202167 -961.05520844 11.67708123 C-946.37017617 11.78996038 -931.68510493 11.89699289 -917 12 C-916.89322937 12.70331955 -916.78645874 13.4066391 -916.67645264 14.13127136 C-916.18080291 17.37359957 -915.67639145 20.61450887 -915.171875 23.85546875 C-915.00413574 24.96144409 -914.83639648 26.06741943 -914.66357422 27.20690918 C-909.95254109 57.25909819 -896.86053776 87.43913506 -879 112 C-878.59281738 112.56267578 -878.18563477 113.12535156 -877.76611328 113.70507812 C-871.72571276 121.97618587 -865.08518844 129.61176471 -858 137 C-857.24396484 137.79688232 -857.24396484 137.79688232 -856.47265625 138.60986328 C-831.09018777 165.25037805 -797.74138277 185.08338669 -762 194 C-760.86256348 194.29535645 -760.86256348 194.29535645 -759.70214844 194.59667969 C-705.44231609 208.65616584 -648.55260619 202.87229426 -599.61376953 174.62255859 C-590.33416628 168.99957265 -581.53519158 162.69139483 -573 156 C-571.75669922 155.06414062 -571.75669922 155.06414062 -570.48828125 154.109375 C-554.85401829 141.94673245 -541.360269 127.16912026 -530 111 C-529.54834473 110.36642578 -529.09668945 109.73285156 -528.63134766 109.08007812 C-518.11349933 94.2431574 -510.31482563 78.45601183 -503.92260742 61.45336914 C-503.29353497 59.78055912 -502.6498161 58.11320153 -501.9934082 56.45092773 C-499.14797149 49.04818209 -497.40724289 41.57082058 -495.8125 33.8125 C-495.55275391 32.59369141 -495.29300781 31.37488281 -495.02539062 30.11914062 C-494.02464655 25.35332324 -493.05191028 20.62891305 -492.46244812 15.79350281 C-492.30984024 14.54164688 -492.15723236 13.28979095 -492 12 C-491.07966054 11.99864347 -490.15932107 11.99728694 -489.21109253 11.99588931 C-434.63146534 11.91526771 -380.0518636 11.82421768 -325.47227621 11.71994839 C-318.91486723 11.70742993 -312.35745808 11.69499709 -305.80004883 11.68261719 C-304.49461884 11.68015119 -303.18918884 11.6776852 -301.84420037 11.67514448 C-280.72308346 11.63545016 -259.60196122 11.60268811 -238.48082883 11.57250018 C-216.79918283 11.54135637 -195.11755939 11.50273445 -173.43593878 11.45720994 C-160.06355303 11.4293667 -146.69118373 11.40731563 -133.31877684 11.39273749 C-124.14155085 11.38217332 -114.96435677 11.36432758 -105.78715486 11.34083296 C-100.49706878 11.3275024 -95.2070273 11.31730836 -89.91692352 11.31578636 C-85.06356149 11.31431877 -80.21030666 11.30360603 -75.35697763 11.28586559 C-73.61106697 11.28105759 -71.86514329 11.27950003 -70.11922742 11.28172119 C-54.69502701 11.29810757 -39.79378097 9.88456827 -24.6875 6.625 C-23.1569397 6.30172729 -23.1569397 6.30172729 -21.59545898 5.97192383 C-15.09785665 4.56174845 -6.40639385 0 0 0 Z " fill="#F4D4B7" transform="translate(1060,343)"/>
<path d="M0 0 C0.66407336 31.47367159 -4.49529135 57.0230347 -26 81 C-26.56203125 81.63292969 -27.1240625 82.26585937 -27.703125 82.91796875 C-40.3897756 96.37444038 -57.30068524 105.22599097 -75 110 C-75.86806044 110.24800254 -76.73612089 110.49600507 -77.63048619 110.75152284 C-86.90265708 113.1737294 -95.74754113 113.41520998 -105.24238586 113.36076355 C-106.95714959 113.36207414 -108.67191272 113.3647052 -110.38667268 113.36853105 C-115.06622934 113.37519825 -119.74557768 113.3632956 -124.42510784 113.34819686 C-129.48354927 113.33518606 -134.54197988 113.33962952 -139.60043335 113.34190369 C-148.35378594 113.34347324 -157.10707121 113.33409732 -165.86040688 113.31719017 C-178.51609682 113.29276156 -191.17175436 113.28499095 -203.82746532 113.2812262 C-224.36277851 113.27466777 -244.89805586 113.25472312 -265.43334961 113.22631836 C-285.37605612 113.19876204 -305.31875289 113.17753615 -325.26147461 113.16479492 C-327.10679526 113.16361267 -327.10679526 113.16361267 -328.98939512 113.16240653 C-335.16129824 113.15849128 -341.33320143 113.15470019 -347.50510466 113.15097082 C-398.67009454 113.11989386 -449.83504552 113.06707464 -501 113 C-501.43324585 114.13610718 -501.43324585 114.13610718 -501.87524414 115.29516602 C-503.3272671 118.78701806 -505.33151766 121.81629286 -507.4375 124.9375 C-507.87852051 125.59282715 -508.31954102 126.2481543 -508.77392578 126.92333984 C-516.88070015 138.81651182 -526.03153355 149.63504168 -536 160 C-536.46937988 160.49129395 -536.93875977 160.98258789 -537.42236328 161.48876953 C-551.55485549 176.21527192 -568.2327738 188.93686681 -586 199 C-586.73395996 199.41749512 -587.46791992 199.83499023 -588.22412109 200.26513672 C-601.98557967 207.9995165 -616.09499081 213.84960657 -631 219 C-632.09489746 219.39010254 -632.09489746 219.39010254 -633.21191406 219.78808594 C-651.91364926 226.42715589 -672.09465472 230.11583985 -691.9296875 230.203125 C-692.95949738 230.20882507 -693.98930725 230.21452515 -695.05032349 230.22039795 C-697.22364288 230.22979977 -699.39697622 230.23636264 -701.5703125 230.24023438 C-704.83099571 230.24986996 -708.09102859 230.28091142 -711.3515625 230.3125 C-728.97217679 230.40330371 -745.33666017 228.33761242 -762.375 223.8125 C-764.09033936 223.35967651 -764.09033936 223.35967651 -765.84033203 222.89770508 C-795.51486949 214.8307803 -823.92005686 201.20867774 -848 182 C-848.90878906 181.28328125 -849.81757812 180.5665625 -850.75390625 179.828125 C-864.8299422 168.53525975 -877.81223388 156.17874251 -889 142 C-889.79277344 141.02417969 -890.58554687 140.04835938 -891.40234375 139.04296875 C-906.44079937 120.15580885 -917.6630786 98.64836074 -926.18798828 76.13964844 C-926.85911778 74.37122422 -927.55001194 72.61031465 -928.24609375 70.8515625 C-932.75025304 59.17930535 -935.12689739 46.97400853 -937.25 34.6875 C-937.4253125 33.69790283 -937.600625 32.70830566 -937.78125 31.6887207 C-937.94109375 30.72281006 -938.1009375 29.75689941 -938.265625 28.76171875 C-938.40774414 27.91569092 -938.54986328 27.06966309 -938.69628906 26.19799805 C-939.14383512 21.48545319 -939 16.73374868 -939 12 C-931.74 12 -924.48 12 -917 12 C-916.78085937 13.57265625 -916.56171875 15.1453125 -916.3359375 16.765625 C-911.37349486 50.86232186 -899.38282651 83.97061725 -879 112 C-878.59281738 112.56267578 -878.18563477 113.12535156 -877.76611328 113.70507812 C-871.72571276 121.97618587 -865.08518844 129.61176471 -858 137 C-857.49597656 137.53125488 -856.99195313 138.06250977 -856.47265625 138.60986328 C-831.09018777 165.25037805 -797.74138277 185.08338669 -762 194 C-761.24170898 194.1969043 -760.48341797 194.39380859 -759.70214844 194.59667969 C-705.44231609 208.65616584 -648.55260619 202.87229426 -599.61376953 174.62255859 C-590.33416628 168.99957265 -581.53519158 162.69139483 -573 156 C-571.75669922 155.06414062 -571.75669922 155.06414062 -570.48828125 154.109375 C-554.85401829 141.94673245 -541.360269 127.16912026 -530 111 C-529.54834473 110.36642578 -529.09668945 109.73285156 -528.63134766 109.08007812 C-518.11349933 94.2431574 -510.31482563 78.45601183 -503.92260742 61.45336914 C-503.29353497 59.78055912 -502.6498161 58.11320153 -501.9934082 56.45092773 C-499.14797149 49.04818209 -497.40724289 41.57082058 -495.8125 33.8125 C-495.55275391 32.59369141 -495.29300781 31.37488281 -495.02539062 30.11914062 C-494.02464655 25.35332324 -493.05191028 20.62891305 -492.46244812 15.79350281 C-492.30984024 14.54164688 -492.15723236 13.28979095 -492 12 C-491.07966054 11.99864347 -490.15932107 11.99728694 -489.21109253 11.99588931 C-434.63146534 11.91526771 -380.0518636 11.82421768 -325.47227621 11.71994839 C-318.91486723 11.70742993 -312.35745808 11.69499709 -305.80004883 11.68261719 C-304.49461884 11.68015119 -303.18918884 11.6776852 -301.84420037 11.67514448 C-280.72308346 11.63545016 -259.60196122 11.60268811 -238.48082883 11.57250018 C-216.79918283 11.54135637 -195.11755939 11.50273445 -173.43593878 11.45720994 C-160.06355303 11.4293667 -146.69118373 11.40731563 -133.31877684 11.39273749 C-124.14155085 11.38217332 -114.96435677 11.36432758 -105.78715486 11.34083296 C-100.49706878 11.3275024 -95.2070273 11.31730836 -89.91692352 11.31578636 C-85.06356149 11.31431877 -80.21030666 11.30360603 -75.35697763 11.28586559 C-73.61106697 11.28105759 -71.86514329 11.27950003 -70.11922742 11.28172119 C-54.69502701 11.29810757 -39.79378097 9.88456827 -24.6875 6.625 C-23.66712646 6.40948486 -22.64675293 6.19396973 -21.59545898 5.97192383 C-15.09785665 4.56174845 -6.40639385 0 0 0 Z " fill="#F39F00" transform="translate(1060,343)"/>
<path d="M0 0 C0 67.32 0 134.64 0 204 C-71.94 204 -143.88 204 -218 204 C-218 178.42906235 -218 178.42906235 -216.4375 170.625 C-216.26114014 169.69059082 -216.08478027 168.75618164 -215.90307617 167.79345703 C-208.13537501 128.68485522 -190.56070026 92.11834768 -162.50634766 63.53710938 C-160.94095663 61.93975089 -159.39824899 60.32230869 -157.85546875 58.703125 C-133.63683824 33.56391404 -100.72625464 14.95853639 -67 6 C-66.05125 5.73703125 -65.1025 5.4740625 -64.125 5.203125 C-42.93934294 -0.20363123 -21.92892604 0 0 0 Z " fill="#9F74C6" transform="translate(1414,1796)"/>
<path d="M0 0 C0 36.96 0 73.92 0 112 C-46.53 112 -93.06 112 -141 112 C-139.83594662 92.21109262 -139.83594662 92.21109262 -137.4375 84.9375 C-137.17573975 84.10806885 -136.91397949 83.2786377 -136.64428711 82.42407227 C-133.92861261 74.17912971 -130.27178602 66.54085599 -126 59 C-125.45730469 58.02933594 -124.91460938 57.05867188 -124.35546875 56.05859375 C-107.39111631 27.70212142 -79.52494616 9.94947235 -48 2 C-32.31085587 -1.13782883 -15.8171474 0 0 0 Z " fill="#F49F00" transform="translate(1414,1888)"/>
<path d="M0 0 C1.38137146 0.00212242 1.38137146 0.00212242 2.79064941 0.00428772 C5.70421734 0.00984218 8.61770568 0.022386 11.53125 0.03515625 C13.51822805 0.04017714 15.50520731 0.04473902 17.4921875 0.04882812 C22.33859628 0.05894167 27.18483506 0.07852566 32.03125 0.09765625 C32.03125 9.66765625 32.03125 19.23765625 32.03125 29.09765625 C18.40625 29.53515625 18.40625 29.53515625 14.20458984 29.66577148 C-3.24885633 30.06324581 -3.24885633 30.06324581 -20.34375 33.22265625 C-21.53883179 33.5487085 -21.53883179 33.5487085 -22.75805664 33.88134766 C-39.51134849 38.65944043 -54.73527951 46.7607701 -67.96875 58.09765625 C-68.77957031 58.7628125 -69.59039063 59.42796875 -70.42578125 60.11328125 C-94.82451371 80.86180964 -105.38429022 110.1026217 -108.96875 141.09765625 C-118.53875 141.09765625 -128.10875 141.09765625 -137.96875 141.09765625 C-137.96875 133.07545502 -137.82086012 126.19282039 -136.34375 118.47265625 C-136.07208008 117.0484436 -136.07208008 117.0484436 -135.79492188 115.59545898 C-130.91468506 91.22895888 -119.92265353 69.14946011 -103.96875 50.09765625 C-103.15277344 49.123125 -102.33679687 48.14859375 -101.49609375 47.14453125 C-97.00929254 42.0035652 -92.25765298 37.40064875 -86.96875 33.09765625 C-86.10507813 32.36160156 -85.24140625 31.62554688 -84.3515625 30.8671875 C-60.7113594 11.5559047 -30.61233833 -0.18007465 0 0 Z " fill="#F4D4B7" transform="translate(1381.96875,1858.90234375)"/>
</svg>
